<svg version="1.1" id="Layer_1" xmlns="http://www.w3.org/2000/svg" xmlns:xlink="http://www.w3.org/1999/xlink" x="0px" y="0px"
	 width="100%" viewBox="0 0 320 320" enable-background="new 0 0 320 320" xml:space="preserve">
<path fill="#0D7E80" opacity="1.000000" stroke="none" 
	d="
M147.000000,321.000000 
	C98.000008,321.000000 49.500019,321.000000 1.000020,321.000000 
	C1.000013,214.333359 1.000013,107.666725 1.000006,1.000062 
	C107.666618,1.000042 214.333237,1.000042 320.999878,1.000021 
	C320.999939,107.666603 320.999939,214.333206 320.999969,320.999908 
	C263.166656,321.000000 205.333328,321.000000 147.000000,321.000000 
M194.709061,186.210907 
	C178.914383,185.012161 163.978470,180.925827 150.136490,173.074280 
	C145.547333,170.471176 141.141937,171.436234 138.871292,175.362595 
	C136.554794,179.368317 137.809525,183.506363 142.421967,186.278671 
	C145.262848,187.986206 148.212265,189.563583 151.249222,190.886658 
	C180.411514,203.591309 210.537827,205.454330 241.001373,197.187271 
	C253.896423,193.687866 266.227600,188.012283 278.655304,182.934738 
	C284.018951,180.743347 285.558563,176.406509 283.544281,172.084915 
	C281.567078,167.842941 277.179443,166.742599 271.999603,169.207733 
	C270.799561,169.778870 269.636627,170.427750 268.439362,171.005096 
	C245.439392,182.096466 221.403931,188.286896 194.709061,186.210907 
M82.758087,91.668991 
	C75.407066,86.857277 68.042641,86.549599 61.805607,90.793625 
	C55.810417,94.873077 52.832493,102.234566 54.404236,109.089973 
	C56.122883,116.586151 62.277420,122.216438 69.579796,122.972878 
	C77.149719,123.757027 83.940987,120.146698 87.350372,113.525803 
	C91.079994,106.283028 89.662666,98.806068 82.758087,91.668991 
M268.972412,88.434998 
	C255.273941,84.720436 243.001938,97.200447 247.523788,111.135483 
	C250.091232,119.047607 257.661224,123.763840 266.206665,122.993797 
	C274.009094,122.290695 280.617493,115.807007 281.752289,107.741585 
	C282.915894,99.471336 278.367889,92.310966 268.972412,88.434998 
z"/>
<path fill="#FAFCFC" opacity="1.000000" stroke="none" 
	d="
M195.183075,186.287811 
	C221.403931,188.286896 245.439392,182.096466 268.439362,171.005096 
	C269.636627,170.427750 270.799561,169.778870 271.999603,169.207733 
	C277.179443,166.742599 281.567078,167.842941 283.544281,172.084915 
	C285.558563,176.406509 284.018951,180.743347 278.655304,182.934738 
	C266.227600,188.012283 253.896423,193.687866 241.001373,197.187271 
	C210.537827,205.454330 180.411514,203.591309 151.249222,190.886658 
	C148.212265,189.563583 145.262848,187.986206 142.421967,186.278671 
	C137.809525,183.506363 136.554794,179.368317 138.871292,175.362595 
	C141.141937,171.436234 145.547333,170.471176 150.136490,173.074280 
	C163.978470,180.925827 178.914383,185.012161 195.183075,186.287811 
z"/>
<path fill="#FCFDFD" opacity="1.000000" stroke="none" 
	d="
M83.028793,91.912308 
	C89.662666,98.806068 91.079994,106.283028 87.350372,113.525803 
	C83.940987,120.146698 77.149719,123.757027 69.579796,122.972878 
	C62.277420,122.216438 56.122883,116.586151 54.404236,109.089973 
	C52.832493,102.234566 55.810417,94.873077 61.805607,90.793625 
	C68.042641,86.549599 75.407066,86.857277 83.028793,91.912308 
z"/>
<path fill="#FBFDFD" opacity="1.000000" stroke="none" 
	d="
M269.324890,88.582886 
	C278.367889,92.310966 282.915894,99.471336 281.752289,107.741585 
	C280.617493,115.807007 274.009094,122.290695 266.206665,122.993797 
	C257.661224,123.763840 250.091232,119.047607 247.523788,111.135483 
	C243.001938,97.200447 255.273941,84.720436 269.324890,88.582886 
z"/>
</svg>